# xmcd
#
# Track frame offsets:
#	150
#	14501
#	30682
#	48334
#	66895
#	89422
#	106756
#	121114
#	137445
#	155237
#	173793
#	196515
#
# Disc length: 2854 seconds
#
# Revision: 1
# Processed by: cddbd v1.5.2PL0 Copyright (c) Steve Scherf et al.
# Submitted via: audiograbber 1.83.01
#
DISCID=950b240c
DTITLE=Karaoke Country Hot Hits - Country ChartBusters Vol.175
DYEAR=1900
DGENRE=Karaoke
TTITLE0=Do What You Gotta Do (Guide Vocals)
TTITLE1=More (Guide Vocals)
TTITLE2=Your Love (Guide Vocals)
TTITLE3=Unconditional (Guide Vocals)
TTITLE4=You Can Leave Your Hat On (Guide Vocals)
TTITLE5=Something to Write Home About (Guide Vocals)
TTITLE6=Do What You Gotta Do (Performance Tracks)
TTITLE7=More (Performance Tracks)
TTITLE8=Your Love (Performance Tracks)
TTITLE9=Unconditional (Performance Tracks)
TTITLE10=You Can Leave Your Hat On (Performance Tracks)
TTITLE11=Something To Write Home About (Performance Tracks)
EXTD=
EXTT0=
EXTT1=
EXTT2=
EXTT3=
EXTT4=
EXTT5=
EXTT6=
EXTT7=
EXTT8=
EXTT9=
EXTT10=
EXTT11=
PLAYORDER=
